<svg width="70" height="42" viewBox="0 0 70 42" fill="none" xmlns="http://www.w3.org/2000/svg">
<g clip-path="url(#clip0_37_515)">
<path d="M8.3463 2.27853C9.28847 2.27853 10.0627 2.41759 10.6696 2.69597C11.2762 2.97434 11.8152 3.29924 12.2862 3.67028C12.5716 3.88449 12.7895 3.90958 12.9394 3.7453C13.0891 3.58128 13.1927 3.19221 13.2498 2.57821H13.7006C13.6719 3.11642 13.6508 3.77463 13.6368 4.55284C13.6225 5.33158 13.6155 6.35771 13.6155 7.63162H13.1857C13.0995 6.9847 13.0058 6.44216 12.9054 6.00347C12.8047 5.56518 12.6645 5.18782 12.4848 4.8714C12.3049 4.55525 12.0569 4.25344 11.7409 3.96559C11.3528 3.5344 10.8891 3.21456 10.3499 3.00607C9.81082 2.79772 9.24643 2.69334 8.65716 2.69334C7.90942 2.69334 7.25882 2.89117 6.70549 3.2863C6.15189 3.68195 5.69201 4.22107 5.32531 4.90365C4.95875 5.58676 4.68551 6.38083 4.50584 7.28664C4.32592 8.19232 4.23628 9.15566 4.23628 10.1762C4.23628 11.2259 4.33342 12.2 4.52743 13.0984C4.72157 13.9969 5.0089 14.7803 5.39007 15.4488C5.77085 16.1173 6.24521 16.6387 6.81329 17.0124C7.3811 17.3863 8.03881 17.5729 8.78655 17.5729C9.31816 17.5729 9.86478 17.4726 10.4254 17.2711C10.9861 17.0699 11.4461 16.761 11.8055 16.3439C12.28 15.9125 12.6034 15.3987 12.776 14.8019C12.9485 14.2055 13.0849 13.411 13.1857 12.4191H13.6151C13.6151 13.7633 13.6222 14.8465 13.6366 15.6685C13.6507 16.4911 13.6721 17.1807 13.701 17.7384H13.2498C13.1927 17.1248 13.0962 16.7394 12.9607 16.5822C12.8249 16.4252 12.6001 16.4467 12.2862 16.6464C11.7579 17.0178 11.1975 17.3423 10.6053 17.6207C10.0128 17.8991 9.25266 18.0382 8.32487 18.0382C6.86882 18.0382 5.59104 17.7314 4.49204 17.1175C3.39265 16.5039 2.53975 15.6186 1.93321 14.4622C1.32627 13.306 1.02319 11.9142 1.02319 10.2869C1.02319 8.68823 1.33699 7.28903 1.96536 6.08993C2.59334 4.89082 3.45682 3.95597 4.55621 3.28487C5.65534 2.61402 6.91861 2.27853 8.3463 2.27853Z" fill="black"/>
<path d="M20.935 6.33008C21.9138 6.33008 22.7825 6.52527 23.5415 6.91526C24.3002 7.30552 24.9032 7.92589 25.3501 8.77705C25.797 9.62807 26.0203 10.7488 26.0203 12.1388C26.0203 13.5292 25.797 14.6495 25.3501 15.5007C24.9032 16.3518 24.3002 16.9688 23.5415 17.3518C22.7825 17.7348 21.9138 17.9264 20.935 17.9264C19.9563 17.9264 19.0838 17.7348 18.3179 17.3518C17.5519 16.9688 16.9488 16.3518 16.5092 15.5007C16.0695 14.6495 15.8496 13.5292 15.8496 12.1388C15.8496 10.7488 16.0695 9.62807 16.5092 8.77705C16.9488 7.92589 17.5519 7.30552 18.3179 6.91526C19.0838 6.52527 19.9563 6.33008 20.935 6.33008ZM20.935 6.75565C20.2681 6.75565 19.7255 7.17786 19.3072 8.02161C18.8886 8.86575 18.6796 10.2382 18.6796 12.1388C18.6796 14.0398 18.8886 15.4086 19.3072 16.2454C19.7255 17.0825 20.2681 17.5008 20.935 17.5008C21.5873 17.5008 22.1265 17.0825 22.5521 16.2454C22.9777 15.4086 23.1904 14.0398 23.1904 12.1388C23.1904 10.2382 22.9777 8.86575 22.5521 8.02161C22.1265 7.17786 21.5873 6.75565 20.935 6.75565Z" fill="black"/>
<path d="M31.3844 0.963501V15.7116C31.3844 16.2591 31.4853 16.6307 31.6875 16.8264C31.8894 17.0219 32.2318 17.1196 32.7143 17.1196V17.6285C32.4585 17.6145 32.0711 17.5965 31.5525 17.5752C31.0334 17.554 30.5041 17.5433 29.9643 17.5433C29.4382 17.5433 28.9016 17.554 28.3547 17.5752C27.8075 17.5965 27.3986 17.6145 27.1289 17.6285V17.1816C27.611 17.1816 27.9534 17.0752 28.1556 16.8625C28.3577 16.6496 28.4588 16.2454 28.4588 15.6497V3.52144C28.4588 2.88314 28.364 2.41172 28.1751 2.10653C27.9861 1.8016 27.6374 1.649 27.1289 1.649V1.20489C27.5967 1.24867 28.0502 1.27063 28.4889 1.27063C29.0445 1.27063 29.5637 1.24533 30.0464 1.19392C30.5289 1.14277 30.9749 1.06606 31.3844 0.963501Z" fill="black"/>
<path d="M38.8505 6.33008C39.8294 6.33008 40.698 6.52527 41.4572 6.91526C42.2159 7.30552 42.8187 7.92589 43.2657 8.77705C43.7125 9.62807 43.9359 10.7488 43.9359 12.1388C43.9359 13.5292 43.7125 14.6495 43.2657 15.5007C42.8187 16.3518 42.2159 16.9688 41.4572 17.3518C40.698 17.7348 39.8294 17.9264 38.8505 17.9264C37.8718 17.9264 36.9994 17.7348 36.2334 17.3518C35.4674 16.9688 34.8643 16.3518 34.4247 15.5007C33.985 14.6495 33.7651 13.5292 33.7651 12.1388C33.7651 10.7488 33.985 9.62807 34.4247 8.77705C34.8643 7.92589 35.4674 7.30552 36.2334 6.91526C36.9994 6.52527 37.8718 6.33008 38.8505 6.33008ZM38.8505 6.75565C38.1838 6.75565 37.6412 7.17786 37.2227 8.02161C36.8043 8.86575 36.5952 10.2382 36.5952 12.1388C36.5952 14.0398 36.8043 15.4086 37.2227 16.2454C37.6412 17.0825 38.1838 17.5008 38.8505 17.5008C39.503 17.5008 40.0422 17.0825 40.4676 16.2454C40.8933 15.4086 41.106 14.0398 41.106 12.1388C41.106 10.2382 40.8933 8.86575 40.4676 8.02161C40.0422 7.17786 39.503 6.75565 38.8505 6.75565Z" fill="black"/>
<path d="M52.3083 6.39465C52.7331 6.39465 53.086 6.48402 53.3672 6.66199C53.648 6.84035 53.8572 7.06652 53.9945 7.34064C54.1313 7.61501 54.2001 7.90294 54.2001 8.20429C54.2001 8.65664 54.0665 9.03393 53.7992 9.33529C53.5318 9.63702 53.1786 9.78776 52.7401 9.78776C52.3289 9.78776 51.9928 9.67819 51.7325 9.45866C51.4719 9.23952 51.3416 8.93779 51.3416 8.55384C51.3416 8.21132 51.4272 7.9234 51.5987 7.69019C51.7701 7.45724 51.9654 7.27211 52.1848 7.13493C52.0337 7.05272 51.8625 7.02535 51.6707 7.05272C51.3416 7.08033 51.0399 7.19668 50.766 7.40227C50.4914 7.60798 50.2585 7.86177 50.0667 8.16312C49.8746 8.46486 49.7275 8.78717 49.6246 9.1297C49.5217 9.47247 49.4705 9.80156 49.4705 10.1167V15.419C49.4705 16.1284 49.6513 16.6024 50.0133 16.8412C50.3748 17.08 50.9033 17.1994 51.5982 17.1994V17.6278C51.2768 17.614 50.8127 17.5963 50.205 17.5754C49.5974 17.5545 48.9655 17.544 48.3091 17.544C47.7644 17.544 47.223 17.5545 46.6857 17.5754C46.1479 17.5963 45.7461 17.614 45.481 17.6278V17.1816C45.9631 17.1816 46.3055 17.0752 46.5076 16.8625C46.7096 16.6496 46.8108 16.2454 46.8108 15.6497V8.94717C46.8108 8.30887 46.716 7.83745 46.5272 7.53226C46.3382 7.22733 45.9894 7.07474 45.481 7.07474V6.68258C45.9195 6.72362 46.3447 6.74421 46.7559 6.74421C47.263 6.74421 47.7462 6.72048 48.2058 6.67229C48.665 6.62434 49.0864 6.55242 49.4705 6.45628V8.59501C49.6349 8.21132 49.8508 7.85474 50.1181 7.52565C50.3855 7.19668 50.7075 6.92607 51.0846 6.71333C51.4616 6.50096 51.8693 6.39465 52.3083 6.39465Z" fill="black"/>
<path d="M61.9541 13.2605C62.19 13.2605 62.3824 13.2807 62.5313 13.321C62.6804 13.3615 62.8105 13.4127 62.9222 13.4746C63.0092 13.5244 63.09 13.5863 63.1642 13.6607C63.2388 13.7353 63.2978 13.8161 63.3411 13.9028C63.3845 13.9898 63.4063 14.0859 63.4063 14.1914C63.4063 14.3715 63.3411 14.5142 63.2107 14.6197C63.0806 14.7253 62.9284 14.7779 62.7546 14.7779C62.5933 14.7779 62.4523 14.7314 62.3313 14.6383C62.2102 14.5451 62.1497 14.4118 62.1497 14.238C62.1497 14.0829 62.2009 13.9479 62.3032 13.8331C62.4056 13.7183 62.5406 13.6454 62.7082 13.6142C62.6648 13.5584 62.5856 13.5104 62.4708 13.47C62.356 13.4297 62.2209 13.4094 62.0658 13.4094C61.7432 13.4094 61.4731 13.5088 61.256 13.7074C61.0386 13.9061 60.9303 14.2007 60.9303 14.5916C60.9303 14.7406 60.9565 14.9005 61.0092 15.0711C61.0619 15.2419 61.169 15.4108 61.3305 15.5785C61.436 15.5537 61.5367 15.5366 61.6331 15.5272C61.7292 15.518 61.8082 15.5133 61.8705 15.5133C61.9822 15.5133 62.0689 15.5334 62.131 15.5738C62.1931 15.6142 62.224 15.6715 62.224 15.746C62.224 15.8081 62.1993 15.8546 62.1497 15.8856C62.0999 15.9168 62.038 15.9321 61.9635 15.9321C61.8518 15.9321 61.7367 15.9042 61.6191 15.8484C61.5012 15.7925 61.4079 15.746 61.3399 15.7088C61.0232 15.8391 60.7671 16.0223 60.5718 16.258C60.3762 16.4939 60.2786 16.8134 60.2786 17.2168C60.2786 17.6326 60.3887 17.9801 60.609 18.2594C60.8292 18.5387 61.1381 18.7482 61.5352 18.8878C61.9323 19.0274 62.3918 19.0973 62.9131 19.0973C63.2294 19.0973 63.538 19.0616 63.8393 18.9901C64.1401 18.9188 64.4118 18.8118 64.6538 18.669C64.8959 18.5264 65.0881 18.3542 65.231 18.1523C65.3736 17.9508 65.445 17.7164 65.445 17.4495C65.445 17.344 65.4263 17.2107 65.3891 17.0493C65.352 16.888 65.2712 16.7267 65.1471 16.5652C65.0229 16.4039 64.8307 16.2736 64.5699 16.1742L64.6445 16.0904C65.0167 16.2021 65.2943 16.4055 65.4777 16.7002C65.6606 16.995 65.7522 17.3317 65.7522 17.7101C65.7522 18.1198 65.625 18.4968 65.3704 18.8412C65.1159 19.1857 64.7577 19.4602 64.2954 19.665C63.8331 19.8698 63.2884 19.9723 62.6617 19.9723C62.1837 19.9723 61.7448 19.9195 61.3445 19.814C60.944 19.7086 60.5965 19.5549 60.3017 19.3532C60.0069 19.1515 59.7789 18.9079 59.6176 18.6225C59.4563 18.337 59.3755 18.0143 59.3755 17.6543C59.3755 17.3131 59.4438 17.0213 59.5804 16.7793C59.7168 16.5373 59.8877 16.3371 60.0924 16.1789C60.2973 16.0206 60.502 15.8981 60.7069 15.8112C60.9116 15.7243 61.0791 15.6654 61.2095 15.6343C61.0108 15.5537 60.8339 15.456 60.6788 15.3411C60.5235 15.2263 60.4043 15.0929 60.3204 14.9407C60.2368 14.7888 60.1947 14.6259 60.1947 14.452C60.1947 14.2659 60.2396 14.1 60.3298 13.954C60.4196 13.8083 60.5453 13.6826 60.7069 13.577C60.8682 13.4715 61.0542 13.3924 61.2653 13.3397C61.4762 13.287 61.7058 13.2605 61.9541 13.2605ZM65.5195 13.1209C65.9351 13.1209 66.2795 13.2343 66.5528 13.4606C66.8257 13.6872 66.9624 14.0053 66.9624 14.4149C66.9624 14.7003 66.8972 14.9424 66.7668 15.141C66.6366 15.3397 66.4551 15.5055 66.2224 15.6389C65.9896 15.7725 65.718 15.8795 65.4078 15.96C65.2962 16.0036 65.1595 16.0502 64.9982 16.0998C64.8367 16.1495 64.6645 16.2007 64.4816 16.2533C64.2985 16.3061 64.1245 16.3573 63.9603 16.4069C63.7957 16.4567 63.6577 16.5033 63.5461 16.5465C63.1549 16.6459 62.8445 16.7593 62.6152 16.8864C62.3853 17.0137 62.2708 17.1889 62.2708 17.4124C62.2708 17.5676 62.3204 17.7025 62.4196 17.8173C62.5188 17.9321 62.643 18.0174 62.792 18.0733C62.9409 18.1291 63.0866 18.157 63.2294 18.157C63.2728 18.157 63.3255 18.1523 63.3876 18.143C63.4497 18.1338 63.5071 18.1197 63.5598 18.1012C63.6125 18.0825 63.6484 18.0578 63.6671 18.0266C63.5305 17.9895 63.4188 17.9243 63.3318 17.8312C63.245 17.7381 63.2016 17.617 63.2016 17.4682C63.2016 17.2882 63.2668 17.1486 63.397 17.0493C63.5274 16.95 63.6855 16.9003 63.8718 16.9003C64.0705 16.9003 64.2271 16.9531 64.3419 17.0586C64.4567 17.1642 64.5141 17.3069 64.5141 17.4868C64.5141 17.673 64.4551 17.8282 64.3372 17.9522C64.2193 18.0764 64.0658 18.1679 63.8764 18.2269C63.6871 18.2859 63.484 18.3152 63.2668 18.3152C63.0432 18.3152 62.8323 18.2734 62.6336 18.1896C62.4349 18.1059 62.2736 17.9801 62.1497 17.8126C62.0253 17.6451 61.9635 17.4248 61.9635 17.1516C61.9635 16.8663 62.0347 16.6211 62.1775 16.4163C62.3204 16.2115 62.5266 16.0393 62.7967 15.8997C63.0666 15.7599 63.3907 15.6468 63.7694 15.5598C63.9183 15.5164 64.0905 15.4699 64.286 15.4202C64.4816 15.3706 64.6816 15.3163 64.8866 15.2573C65.0912 15.1984 65.2834 15.1349 65.4637 15.0664C65.8608 14.9486 66.1585 14.8183 66.3572 14.6755C66.5559 14.5328 66.6551 14.3589 66.6551 14.1542C66.6551 13.9805 66.6055 13.8284 66.5063 13.698C66.4068 13.5678 66.2767 13.4653 66.1154 13.3909C65.9538 13.3163 65.78 13.2792 65.5941 13.2792C65.5317 13.2792 65.4777 13.2837 65.431 13.2931C65.3845 13.3024 65.352 13.3163 65.3333 13.335C65.4574 13.3909 65.552 13.4685 65.6172 13.5678C65.6824 13.6671 65.7148 13.7694 65.7148 13.8749C65.7148 14.0424 65.6512 14.1761 65.5242 14.2751C65.3969 14.3745 65.2403 14.4241 65.0541 14.4241C64.8741 14.4241 64.7203 14.3745 64.5933 14.2751C64.466 14.1761 64.4024 14.0363 64.4024 13.8563C64.4024 13.695 64.452 13.5584 64.5512 13.4467C64.6505 13.335 64.7855 13.2528 64.9562 13.2C65.1268 13.1474 65.3146 13.1209 65.5195 13.1209Z" fill="black"/>
<path d="M10.8388 21.6624C10.7834 22.2892 10.7454 22.8942 10.7247 23.4767C10.7042 24.0598 10.6938 24.5041 10.6938 24.8102C10.6938 25.1457 10.7004 25.459 10.7146 25.7504C10.728 26.042 10.7419 26.2969 10.7558 26.5154H10.5023C10.3536 25.4462 10.1507 24.6015 9.89445 23.9815C9.63767 23.3613 9.29306 22.9196 8.86088 22.6557C8.42821 22.392 7.85427 22.2599 7.1381 22.2599H6.26681C5.84774 22.2599 5.53381 22.2957 5.32452 22.367C5.11474 22.4385 4.97299 22.5881 4.89877 22.816C4.82456 23.0441 4.78745 23.3934 4.78745 23.8638V34.5561C4.78745 35.098 4.84113 35.5044 4.94948 35.7749C5.05759 36.0461 5.26688 36.2241 5.57784 36.3095C5.88831 36.3951 6.33434 36.4452 6.9152 36.4593V36.7969C6.49603 36.7681 5.95408 36.7503 5.28934 36.7427C4.6246 36.7358 3.9379 36.7318 3.23002 36.7318C2.62297 36.7318 2.03762 36.7358 1.47397 36.7427C0.910577 36.7503 0.418903 36.7681 0 36.7969V36.7028C0.455875 36.6737 0.797908 36.6152 1.02585 36.5277C1.25378 36.4405 1.40557 36.2654 1.48172 36.0031C1.55762 35.7408 1.59582 35.3474 1.59582 34.8228V23.9795C1.59582 23.4407 1.55762 23.0433 1.48172 22.7882C1.40557 22.5334 1.25378 22.3586 1.02585 22.2636C0.797908 22.1689 0.455875 22.1141 0 22.0995V21.6624C0.552515 21.677 1.13615 21.688 1.75115 21.6952C2.3659 21.7026 2.97381 21.7099 3.5749 21.7171C4.17599 21.7245 4.73204 21.728 5.24332 21.728H6.50748C7.14272 21.728 7.86498 21.7245 8.67301 21.7171C9.48129 21.7099 10.2031 21.6917 10.8388 21.6624ZM7.97908 29.1751V29.7071H3.98954V29.1751H7.97908ZM8.45008 26.2495C8.3925 27.068 8.36726 27.6925 8.37488 28.1234C8.38172 28.5541 8.38566 28.9493 8.38566 29.308C8.38566 29.6672 8.3925 30.0618 8.40696 30.4928C8.42116 30.9235 8.45718 31.5482 8.51477 32.3668H8.01939C7.96181 31.8788 7.854 31.4157 7.69624 30.9774C7.53795 30.5396 7.29788 30.1878 6.97473 29.922C6.65158 29.6564 6.18854 29.5233 5.58536 29.5233V29.0926C6.03025 29.0926 6.39652 28.9993 6.68392 28.8126C6.97105 28.6262 7.19718 28.3856 7.3623 28.0911C7.52743 27.7969 7.65653 27.4879 7.75014 27.1648C7.84322 26.8416 7.91158 26.5369 7.95471 26.2495H8.45008Z" fill="black"/>
<path d="M17.1688 25.498C18.4168 25.498 19.3955 25.8739 20.1051 26.6256C20.8142 27.3778 21.169 28.5762 21.169 30.239H13.9985L13.9772 29.7071H18.7007C18.729 29.1224 18.6864 28.4806 18.5732 27.8918C18.4594 27.3032 18.2787 26.8315 18.0306 26.4767C17.7823 26.1225 17.4594 25.9448 17.0623 25.9448C16.5231 25.9448 16.0551 26.2606 15.6582 26.8915C15.2608 27.5229 15.0125 28.5549 14.9133 29.9876L14.9985 30.1151C14.9699 30.2998 14.9522 30.4982 14.9452 30.7109C14.9379 30.9237 14.9346 31.1366 14.9346 31.3494C14.9346 32.3281 15.0764 33.1366 15.3603 33.775C15.6439 34.4132 16.0125 34.8813 16.4667 35.1792C16.9205 35.4771 17.3885 35.6262 17.8709 35.6262C18.1971 35.6262 18.5306 35.5766 18.8711 35.4771C19.2114 35.3781 19.5446 35.1935 19.8711 34.9239C20.1973 34.6545 20.495 34.2717 20.7646 33.775L21.169 33.9452C21.0126 34.4418 20.7542 34.9345 20.3924 35.4238C20.0306 35.9134 19.5659 36.3142 18.9986 36.6262C18.4311 36.9381 17.7646 37.0942 16.9987 37.0942C16.0338 37.0942 15.1826 36.8815 14.4452 36.456C13.7076 36.0303 13.133 35.3958 12.7219 34.5517C12.3102 33.7078 12.1047 32.6758 12.1047 31.4556C12.1047 30.165 12.3208 29.0798 12.7538 28.2003C13.1863 27.3209 13.7857 26.6505 14.5517 26.1895C15.3177 25.7287 16.1901 25.498 17.1688 25.498Z" fill="black"/>
<path d="M27.9137 25.498C29.1617 25.498 30.1404 25.8739 30.8497 26.6256C31.5591 27.3778 31.9136 28.5762 31.9136 30.239H24.7431L24.722 29.7071H29.4456C29.4739 29.1224 29.4313 28.4806 29.3178 27.8918C29.204 27.3032 29.0233 26.8315 28.7752 26.4767C28.5269 26.1225 28.2041 25.9448 27.8072 25.9448C27.268 25.9448 26.7999 26.2606 26.4028 26.8915C26.0057 27.5229 25.7571 28.5549 25.6581 29.9876L25.7433 30.1151C25.7148 30.2998 25.6971 30.4982 25.6901 30.7109C25.6828 30.9237 25.6794 31.1366 25.6794 31.3494C25.6794 32.3281 25.821 33.1366 26.1049 33.775C26.3885 34.4132 26.7573 34.8813 27.2113 35.1792C27.6651 35.4771 28.1334 35.6262 28.6157 35.6262C28.942 35.6262 29.2752 35.5766 29.6157 35.4771C29.9562 35.3781 30.2892 35.1935 30.6157 34.9239C30.9419 34.6545 31.2398 34.2717 31.5095 33.775L31.9136 33.9452C31.7575 34.4418 31.4988 34.9345 31.137 35.4238C30.7754 35.9134 30.3105 36.3142 29.7435 36.6262C29.176 36.9381 28.5092 37.0942 27.7433 37.0942C26.7786 37.0942 25.9275 36.8815 25.1901 36.456C24.4522 36.0303 23.8779 35.3958 23.4665 34.5517C23.0551 33.7078 22.8496 32.6758 22.8496 31.4556C22.8496 30.165 23.0657 29.0798 23.4984 28.2003C23.9309 27.3209 24.5304 26.6505 25.2963 26.1895C26.0623 25.7287 26.9347 25.498 27.9137 25.498Z" fill="black"/>
<path d="M37.2357 20.1313V34.8795C37.2357 35.427 37.3365 35.7987 37.5387 35.9942C37.7407 36.1898 38.0831 36.2877 38.5656 36.2877V36.7944C38.322 36.781 37.9532 36.7639 37.4592 36.7435C36.9648 36.7235 36.4607 36.7133 35.9467 36.7133C35.4455 36.7133 34.9345 36.7235 34.4138 36.7435C33.8926 36.7639 33.5032 36.781 33.2462 36.7944L32.9802 36.3496C32.9802 36.3496 34.0662 36.2431 34.2862 36.0303C34.5059 35.8176 34.616 35.4132 34.576 34.8176V22.6893C34.616 22.0511 34.5129 21.5797 34.3075 21.2745C34.1018 20.9696 32.9802 20.8168 32.9802 20.8168V20.3727C33.448 20.4166 33.9016 20.4386 34.3402 20.4386C34.8958 20.4386 35.415 20.4132 35.8977 20.3618C36.3802 20.3106 36.8261 20.2339 37.2357 20.1313Z" fill="black"/>
<path d="M43.8848 25.5667V34.8796C43.8848 35.427 43.9858 35.7986 44.188 35.9941C44.3899 36.1896 44.7322 36.2875 45.2146 36.2875V36.7943C44.971 36.7809 44.5985 36.7638 44.0979 36.7435C43.597 36.7234 43.0894 36.7133 42.5752 36.7133C42.0743 36.7133 41.5667 36.7234 41.0524 36.7435C40.5379 36.7638 40.152 36.7809 39.8953 36.7943V36.3495C40.3775 36.3495 40.7197 36.243 40.9219 36.0303C41.1241 35.8176 41.2251 35.4132 41.2251 34.8176V28.1151C41.2251 27.4767 41.1303 27.0053 40.9415 26.7001C40.7524 26.3952 40.4038 26.2427 39.8953 26.2427V25.7931C40.3338 25.834 40.7588 25.8546 41.1703 25.8546C41.6774 25.8546 42.1607 25.831 42.6201 25.7828C43.0792 25.7349 43.501 25.6628 43.8848 25.5667ZM42.382 20.3701C42.8926 20.3701 43.3108 20.5122 43.6373 20.7955C43.9635 21.0797 44.1266 21.4553 44.1266 21.9233C44.1266 22.3913 43.9635 22.7674 43.6373 23.0511C43.3108 23.335 42.8926 23.4765 42.382 23.4765C41.8713 23.4765 41.4526 23.335 41.1264 23.0511C40.8002 22.7674 40.6371 22.3913 40.6371 21.9233C40.6371 21.4553 40.8002 21.0797 41.1264 20.7955C41.4526 20.5122 41.8713 20.3701 42.382 20.3701Z" fill="black"/>
<path d="M53.8418 25.4659C54.4483 25.4659 54.9355 25.5455 55.3038 25.7041C55.6718 25.863 55.9714 26.0652 56.2024 26.3106C56.4623 26.585 56.6466 26.9385 56.7547 27.3718C56.8631 27.8049 56.9173 28.3897 56.9173 29.126V34.8795C56.9173 35.427 57.0181 35.7987 57.2203 35.9942C57.4223 36.1898 57.7646 36.2877 58.2472 36.2877V36.796C57.9939 36.782 57.6035 36.7643 57.0758 36.7431C56.5481 36.7223 56.0376 36.7117 55.5452 36.7117C55.0245 36.7117 54.5179 36.7223 54.0255 36.7431C53.5328 36.7643 53.1669 36.782 52.9278 36.796V36.4089C53.417 36.4089 53.7606 36.2941 53.9596 36.0649C54.158 35.8357 54.2576 35.4 54.2576 34.7583V28.3903C54.2576 27.9935 54.2208 27.6375 54.1473 27.3214C54.0736 27.0055 53.927 26.7558 53.7066 26.572C53.486 26.3883 53.1698 26.2965 52.7587 26.2965C52.2739 26.2965 51.8439 26.4286 51.4694 26.6931C51.0946 26.9576 50.8006 27.3214 50.5877 27.7841C50.3746 28.2469 50.2681 28.7651 50.2681 29.3379V34.7583C50.2681 35.4 50.3674 35.8357 50.5661 36.0649C50.7645 36.2941 51.1085 36.4089 51.5979 36.4089V36.796C51.3583 36.782 50.9996 36.7643 50.5214 36.7431C50.0426 36.7223 49.5572 36.7117 49.0648 36.7117C48.544 36.7117 48.0163 36.7223 47.4816 36.7431C46.9467 36.7643 46.5455 36.782 46.2786 36.796V36.3495C46.7608 36.3495 47.103 36.2431 47.3052 36.0303C47.5074 35.8176 47.6084 35.4132 47.6084 34.8176V28.1151C47.6084 27.4767 47.5136 27.0053 47.3248 26.7001C47.1357 26.3952 46.7871 26.2427 46.2786 26.2427V25.7931C46.7171 25.834 47.1421 25.8546 47.5536 25.8546C48.0607 25.8546 48.544 25.831 49.0034 25.7828C49.4625 25.7349 49.8843 25.6628 50.2681 25.5667V27.6965C50.629 26.8737 51.1271 26.2963 51.7627 25.964C52.3977 25.6319 53.0909 25.4659 53.8418 25.4659Z" fill="black"/>
<path d="M63.0809 41.0365C62.2168 41.0365 61.4337 40.9558 60.7311 40.795C60.0285 40.6336 59.4716 40.3958 59.062 40.0813C58.6521 39.7663 58.447 39.3674 58.447 38.8843C58.447 38.4157 58.6521 37.9983 59.062 37.6326C59.4716 37.2664 60.0721 36.9882 60.863 36.7981L61.0166 37.1493C60.7383 37.3104 60.526 37.53 60.3796 37.8082C60.2333 38.0862 60.1601 38.3793 60.1601 38.6868C60.1601 39.3159 60.4491 39.8031 61.0276 40.147C61.6059 40.491 62.3782 40.6633 63.3446 40.6633C64.0033 40.6633 64.6108 40.5754 65.1674 40.3998C65.7236 40.2239 66.17 39.9529 66.507 39.587C66.8437 39.221 67.012 38.7669 67.012 38.2254C67.012 37.7715 66.8474 37.3908 66.518 37.0836C66.1885 36.7761 65.533 36.6222 64.5524 36.6222H63.1028C62.561 36.6222 62.067 36.5641 61.6206 36.4466C61.1737 36.3295 60.819 36.1391 60.5555 35.8756C60.292 35.6121 60.1601 35.2462 60.1601 34.7776C60.1601 34.2065 60.3941 33.6905 60.863 33.2294C61.3313 32.768 62.0632 32.3179 63.0591 31.8788L63.3007 32.0763C62.9345 32.2667 62.6088 32.4715 62.3233 32.6913C62.0377 32.9109 61.8951 33.1892 61.8951 33.5259C61.8951 33.9945 62.2168 34.2285 62.8613 34.2285H65.3429C66.104 34.2285 66.7815 34.324 67.3745 34.514C67.9675 34.7044 68.4396 35.0046 68.791 35.4145C69.1422 35.8244 69.3181 36.3662 69.3181 37.0396C69.3181 37.7423 69.0908 38.3975 68.6372 39.0052C68.1833 39.6124 67.4986 40.1033 66.5839 40.4765C65.6687 40.8499 64.5009 41.0365 63.0809 41.0365ZM63.2975 32.2641C62.5315 32.2641 61.8399 32.1473 61.223 31.9132C60.6059 31.679 60.1199 31.3104 59.7654 30.8068C59.4106 30.3034 59.2334 29.6613 59.2334 28.8811C59.2334 28.1011 59.4106 27.4629 59.7654 26.9661C60.1199 26.4697 60.6059 26.1011 61.223 25.8596C61.8399 25.6185 62.5315 25.498 63.2975 25.498C64.0775 25.498 64.7725 25.6185 65.3827 25.8596C65.9923 26.1011 66.4749 26.4697 66.8294 26.9661C67.1839 27.4629 67.3613 28.1011 67.3613 28.8811C67.3613 29.6613 67.1839 30.3034 66.8294 30.8068C66.4749 31.3104 65.9923 31.679 65.3827 31.9132C64.7725 32.1473 64.0775 32.2641 63.2975 32.2641ZM63.2975 31.8813C63.723 31.8813 64.0598 31.6652 64.3081 31.2322C64.5562 30.7997 64.6806 30.0161 64.6806 28.8811C64.6806 27.7463 64.5562 26.9627 64.3081 26.53C64.0598 26.0975 63.723 25.8809 63.2975 25.8809C62.8718 25.8809 62.5347 26.0975 62.2869 26.53C62.0383 26.9627 61.9144 27.7463 61.9144 28.8811C61.9144 30.0161 62.0383 30.7997 62.2869 31.2322C62.5347 31.6652 62.8718 31.8813 63.2975 31.8813ZM66.5104 27.3066L66.106 27.1575C66.3187 26.6331 66.6663 26.1894 67.1486 25.8276C67.6307 25.4661 68.1413 25.2853 68.6808 25.2853C69.0919 25.2853 69.4148 25.3988 69.6488 25.6256C69.8828 25.8526 70 26.1718 70 26.5832C70 27.0087 69.8862 27.3209 69.6595 27.5193C69.4325 27.7182 69.1839 27.8172 68.9148 27.8172C68.6733 27.8172 68.4535 27.7357 68.2551 27.5725C68.0564 27.4097 67.9429 27.1544 67.9146 26.8066C67.886 26.4591 67.9998 26.023 68.2551 25.498L68.4678 25.583C67.9146 25.7959 67.5031 26.03 67.2338 26.2853C66.9642 26.5406 66.7232 26.8811 66.5104 27.3066Z" fill="black"/>
</g>
<defs>
<clipPath id="clip0_37_515">
<rect width="70" height="40.073" fill="white" transform="translate(0 0.963501)"/>
</clipPath>
</defs>
</svg>
