<svg width="88" height="50" viewBox="0 0 88 50" fill="none" xmlns="http://www.w3.org/2000/svg">
<g clip-path="url(#clip0_37_460)">
<path d="M10.4138 1.64062C11.5894 1.64062 12.5554 1.81413 13.3127 2.16147C14.0695 2.5088 14.742 2.91419 15.3297 3.37714C15.6858 3.64441 15.9576 3.67572 16.1447 3.47074C16.3316 3.26609 16.4607 2.78064 16.532 2.01454H17.0944C17.0587 2.68607 17.0323 3.50734 17.0149 4.47834C16.9971 5.44998 16.9884 6.7303 16.9884 8.3198H16.452C16.3445 7.51263 16.2275 6.83568 16.1022 6.28832C15.9766 5.74145 15.8017 5.27061 15.5775 4.87581C15.353 4.48134 15.0436 4.10477 14.6493 3.7456C14.165 3.2076 13.5865 2.80853 12.9138 2.54839C12.2411 2.28842 11.5369 2.15819 10.8017 2.15819C9.86871 2.15819 9.05694 2.40503 8.36654 2.89803C7.6758 3.3917 7.102 4.06437 6.64446 4.91604C6.18709 5.76838 5.84616 6.75916 5.62199 7.88936C5.39749 9.0194 5.28566 10.2214 5.28566 11.4948C5.28566 12.8045 5.40685 14.0199 5.64892 15.1408C5.89116 16.2619 6.24966 17.2394 6.72526 18.0735C7.20037 18.9076 7.79224 19.5581 8.50104 20.0244C9.20951 20.4909 10.0301 20.7238 10.9631 20.7238C11.6264 20.7238 12.3085 20.5987 13.0079 20.3472C13.7075 20.0961 14.2815 19.7107 14.73 19.1903C15.322 18.6521 15.7255 18.011 15.9408 17.2663C16.1561 16.5222 16.3263 15.5308 16.452 14.2932H16.9878C16.9878 15.9704 16.9966 17.322 17.0146 18.3476C17.0322 19.3739 17.0589 20.2345 17.095 20.9303H16.532C16.4607 20.1647 16.3404 19.6838 16.1713 19.4876C16.0018 19.2918 15.7214 19.3185 15.3297 19.5677C14.6705 20.0312 13.9713 20.436 13.2325 20.7834C12.4931 21.1307 11.5447 21.3044 10.3871 21.3044C8.57033 21.3044 6.97601 20.9215 5.60477 20.1556C4.23304 19.39 3.16886 18.2853 2.41206 16.8425C1.65477 15.3998 1.27661 13.6633 1.27661 11.6328C1.27661 9.63815 1.66814 7.89234 2.45217 6.39619C3.23571 4.90004 4.31311 3.73361 5.68484 2.89625C7.05624 2.05922 8.63246 1.64062 10.4138 1.64062Z" fill="white"/>
<path d="M26.121 6.6958C27.3423 6.6958 28.4262 6.93935 29.3733 7.42595C30.3199 7.91287 31.0723 8.68693 31.6298 9.74894C32.1874 10.8108 32.4661 12.2092 32.4661 13.9435C32.4661 15.6783 32.1874 17.0762 31.6298 18.1382C31.0723 19.2002 30.3199 19.97 29.3733 20.4479C28.4262 20.9257 27.3423 21.1647 26.121 21.1647C24.8999 21.1647 23.8113 20.9257 22.8556 20.4479C21.8999 19.97 21.1474 19.2002 20.5989 18.1382C20.0502 17.0762 19.7759 15.6783 19.7759 13.9435C19.7759 12.2092 20.0502 10.8108 20.5989 9.74894C21.1474 8.68693 21.8999 7.91287 22.8556 7.42595C23.8113 6.93935 24.8999 6.6958 26.121 6.6958ZM26.121 7.2268C25.2889 7.2268 24.6119 7.75359 24.09 8.80636C23.5677 9.85961 23.3069 11.572 23.3069 13.9435C23.3069 16.3154 23.5677 18.0233 24.09 19.0673C24.6119 20.1118 25.2889 20.6337 26.121 20.6337C26.9349 20.6337 27.6077 20.1118 28.1387 19.0673C28.6697 18.0233 28.9351 16.3154 28.9351 13.9435C28.9351 11.572 28.6697 9.85961 28.1387 8.80636C27.6077 7.75359 26.9349 7.2268 26.121 7.2268Z" fill="white"/>
<path d="M39.1591 0V18.4015C39.1591 19.0847 39.2849 19.5483 39.5372 19.7924C39.7892 20.0364 40.2163 20.1584 40.8183 20.1584V20.7933C40.4992 20.7758 40.0158 20.7534 39.3687 20.7268C38.7211 20.7003 38.0607 20.687 37.3871 20.687C36.7307 20.687 36.0612 20.7003 35.3788 20.7268C34.696 20.7534 34.1859 20.7758 33.8494 20.7933V20.2356C34.4509 20.2356 34.8781 20.1029 35.1304 19.8375C35.3825 19.5719 35.5086 19.0675 35.5086 18.3242V3.19159C35.5086 2.39517 35.3904 1.80697 35.1548 1.42618C34.9189 1.04571 34.4838 0.855318 33.8494 0.855318V0.301191C34.433 0.355817 34.9988 0.383213 35.5463 0.383213C36.2395 0.383213 36.8873 0.351641 37.4896 0.287493C38.0916 0.22368 38.648 0.12796 39.1591 0Z" fill="white"/>
<path d="M48.4748 6.6958C49.6962 6.6958 50.7799 6.93935 51.7272 7.42595C52.6738 7.91287 53.426 8.68693 53.9838 9.74894C54.5412 10.8108 54.8199 12.2092 54.8199 13.9435C54.8199 15.6783 54.5412 17.0762 53.9838 18.1382C53.426 19.2002 52.6738 19.97 51.7272 20.4479C50.7799 20.9257 49.6962 21.1647 48.4748 21.1647C47.2536 21.1647 46.1651 20.9257 45.2093 20.4479C44.2536 19.97 43.5011 19.2002 42.9526 18.1382C42.404 17.0762 42.1296 15.6783 42.1296 13.9435C42.1296 12.2092 42.404 10.8108 42.9526 9.74894C43.5011 8.68693 44.2536 7.91287 45.2093 7.42595C46.1651 6.93935 47.2536 6.6958 48.4748 6.6958ZM48.4748 7.2268C47.6428 7.2268 46.9659 7.75359 46.4438 8.80636C45.9217 9.85961 45.6608 11.572 45.6608 13.9435C45.6608 16.3154 45.9217 18.0233 46.4438 19.0673C46.9659 20.1118 47.6428 20.6337 48.4748 20.6337C49.2888 20.6337 49.9616 20.1118 50.4925 19.0673C51.0236 18.0233 51.289 16.3154 51.289 13.9435C51.289 11.572 51.0236 9.85961 50.4925 8.80636C49.9616 7.75359 49.2888 7.2268 48.4748 7.2268Z" fill="white"/>
<path d="M65.266 6.77637C65.7959 6.77637 66.2363 6.88787 66.5871 7.10993C66.9376 7.33247 67.1985 7.61467 67.3698 7.9567C67.5405 8.29903 67.6263 8.65828 67.6263 9.03429C67.6263 9.5987 67.4597 10.0694 67.1261 10.4455C66.7926 10.8219 66.3519 11.01 65.8047 11.01C65.2917 11.01 64.8723 10.8733 64.5475 10.5994C64.2224 10.326 64.0598 9.94949 64.0598 9.47044C64.0598 9.04306 64.1666 8.68381 64.3805 8.39284C64.5945 8.10218 64.8381 7.87119 65.1119 7.70002C64.9233 7.59744 64.7097 7.56331 64.4704 7.59745C64.0598 7.6319 63.6833 7.77707 63.3416 8.03359C62.999 8.29026 62.7083 8.60692 62.469 8.98293C62.2294 9.3594 62.0459 9.76156 61.9175 10.1889C61.789 10.6166 61.7251 11.0272 61.7251 11.4205V18.0362C61.7251 18.9213 61.9507 19.5128 62.4024 19.8107C62.8535 20.1087 63.5129 20.2577 64.38 20.2577V20.7922C63.9789 20.775 63.3998 20.7529 62.6417 20.7268C61.8835 20.7008 61.0951 20.6877 60.276 20.6877C59.5964 20.6877 58.9209 20.7008 58.2505 20.7268C57.5795 20.7529 57.0782 20.775 56.7473 20.7922V20.2354C57.349 20.2354 57.7761 20.1027 58.0283 19.8373C58.2803 19.5717 58.4066 19.0673 58.4066 18.324V9.9612C58.4066 9.16478 58.2883 8.57658 58.0528 8.19578C57.8169 7.81532 57.3817 7.62492 56.7473 7.62492V7.13562C57.2945 7.18683 57.8251 7.21251 58.3381 7.21251C58.9708 7.21251 59.5737 7.18291 60.1472 7.12278C60.7201 7.06295 61.2459 6.97322 61.7251 6.85326V9.5218C61.9303 9.04306 62.1997 8.59815 62.5332 8.18753C62.8668 7.77707 63.2686 7.43943 63.7391 7.17399C64.2095 6.90901 64.7182 6.77637 65.266 6.77637Z" fill="white"/>
<path d="M77.3017 15.3431C77.5959 15.3431 77.8361 15.3684 78.0218 15.4186C78.2078 15.4692 78.3702 15.533 78.5095 15.6103C78.6181 15.6724 78.7189 15.7497 78.8115 15.8425C78.9046 15.9356 78.9781 16.0363 79.0322 16.1446C79.0864 16.2531 79.1136 16.3731 79.1136 16.5046C79.1136 16.7294 79.0322 16.9075 78.8696 17.039C78.7072 17.1708 78.5173 17.2364 78.3005 17.2364C78.0992 17.2364 77.9233 17.1784 77.7722 17.0622C77.6212 16.946 77.5457 16.7796 77.5457 16.5628C77.5457 16.3693 77.6095 16.2008 77.7372 16.0576C77.8649 15.9143 78.0334 15.8234 78.2425 15.7845C78.1883 15.7149 78.0895 15.6549 77.9463 15.6045C77.803 15.5543 77.6345 15.529 77.441 15.529C77.0385 15.529 76.7015 15.653 76.4306 15.9007C76.1593 16.1486 76.0242 16.5163 76.0242 17.004C76.0242 17.1899 76.0569 17.3894 76.1227 17.6023C76.1885 17.8154 76.322 18.0262 76.5236 18.2354C76.6551 18.2044 76.7809 18.183 76.9011 18.1714C77.021 18.1599 77.1195 18.154 77.1973 18.154C77.3367 18.154 77.4449 18.1791 77.5224 18.2295C77.5998 18.2799 77.6384 18.3514 77.6384 18.4444C77.6384 18.5219 77.6076 18.5799 77.5457 18.6186C77.4835 18.6575 77.4063 18.6766 77.3133 18.6766C77.174 18.6766 77.0304 18.6418 76.8836 18.5721C76.7365 18.5024 76.6201 18.4444 76.5352 18.3979C76.1402 18.5606 75.8206 18.7891 75.5769 19.0832C75.3329 19.3776 75.211 19.7762 75.211 20.2795C75.211 20.7983 75.3485 21.232 75.6233 21.5803C75.8981 21.9289 76.2834 22.1902 76.7789 22.3644C77.2744 22.5386 77.8477 22.6258 78.4982 22.6258C78.8929 22.6258 79.2779 22.5812 79.6538 22.4921C80.0291 22.4032 80.3681 22.2696 80.6701 22.0914C80.9722 21.9135 81.212 21.6986 81.3902 21.4468C81.5682 21.1953 81.6573 20.9029 81.6573 20.5699C81.6573 20.4383 81.6339 20.2719 81.5876 20.0705C81.5413 19.8692 81.4405 19.668 81.2856 19.4665C81.1306 19.2653 80.8908 19.1026 80.5655 18.9786L80.6585 18.8741C81.1229 19.0135 81.4693 19.2672 81.6981 19.6349C81.9263 20.0027 82.0407 20.4229 82.0407 20.8951C82.0407 21.4061 81.8819 21.8765 81.5643 22.3063C81.2467 22.7362 80.7998 23.0787 80.2229 23.3342C79.646 23.5898 78.9665 23.7176 78.1845 23.7176C77.5882 23.7176 77.0405 23.6517 76.5411 23.5201C76.0413 23.3885 75.6077 23.1968 75.2399 22.9452C74.8721 22.6935 74.5875 22.3896 74.3863 22.0334C74.185 21.6772 74.0842 21.2746 74.0842 20.8254C74.0842 20.3997 74.1695 20.0356 74.3399 19.7336C74.5101 19.4317 74.7233 19.1818 74.9787 18.9845C75.2344 18.7869 75.4898 18.6341 75.7455 18.5257C76.0008 18.4173 76.2099 18.3438 76.3725 18.305C76.1246 18.2044 75.9039 18.0826 75.7105 17.9392C75.5167 17.7959 75.3679 17.6295 75.2632 17.4396C75.1589 17.25 75.1064 17.0468 75.1064 16.8298C75.1064 16.5976 75.1624 16.3906 75.2749 16.2084C75.387 16.0266 75.5439 15.8698 75.7455 15.738C75.9467 15.6065 76.1787 15.5078 76.4422 15.442C76.7054 15.3762 76.9919 15.3431 77.3017 15.3431ZM81.7503 15.1689C82.2688 15.1689 82.6985 15.3104 83.0395 15.5928C83.3801 15.8756 83.5505 16.2724 83.5505 16.7835C83.5505 17.1397 83.4692 17.4417 83.3065 17.6895C83.1441 17.9374 82.9176 18.1443 82.6272 18.3107C82.3369 18.4775 81.9979 18.611 81.6109 18.7114C81.4716 18.7657 81.3011 18.8239 81.0999 18.8858C80.8983 18.9479 80.6834 19.0117 80.4553 19.0773C80.2268 19.1433 80.0097 19.2071 79.8048 19.269C79.5994 19.3311 79.4273 19.3892 79.2879 19.4432C78.7999 19.5672 78.4126 19.7086 78.1264 19.8673C77.8396 20.0261 77.6967 20.2446 77.6967 20.5235C77.6967 20.7172 77.7586 20.8855 77.8824 21.0288C78.0062 21.172 78.1611 21.2785 78.3471 21.3481C78.5328 21.4178 78.7146 21.4526 78.8929 21.4526C78.947 21.4526 79.0128 21.4468 79.0903 21.4351C79.1677 21.4236 79.2393 21.4061 79.3051 21.383C79.3709 21.3596 79.4156 21.3288 79.439 21.29C79.2685 21.2436 79.1291 21.1623 79.0206 21.0461C78.9123 20.9299 78.8582 20.7789 78.8582 20.5932C78.8582 20.3686 78.9396 20.1944 79.1019 20.0705C79.2646 19.9467 79.462 19.8846 79.6943 19.8846C79.9423 19.8846 80.1377 19.9505 80.2809 20.0821C80.4242 20.2139 80.4958 20.3919 80.4958 20.6164C80.4958 20.8487 80.4222 21.0424 80.2751 21.1971C80.128 21.352 79.9364 21.4663 79.7002 21.5398C79.4639 21.6134 79.2105 21.65 78.9396 21.65C78.6605 21.65 78.3974 21.5978 78.1495 21.4933C77.9015 21.3888 77.7003 21.232 77.5457 21.0229C77.3905 20.8139 77.3133 20.5391 77.3133 20.1981C77.3133 19.8421 77.4021 19.5362 77.5804 19.2807C77.7586 19.0251 78.0159 18.8103 78.353 18.6361C78.6897 18.4617 79.0941 18.3206 79.5666 18.212C79.7523 18.1579 79.9672 18.0999 80.2112 18.0378C80.4553 17.9759 80.7048 17.9082 80.9605 17.8346C81.2159 17.7611 81.4557 17.6818 81.6806 17.5964C82.1761 17.4495 82.5475 17.2868 82.7954 17.1087C83.0434 16.9306 83.1672 16.7137 83.1672 16.4583C83.1672 16.2415 83.1053 16.0517 82.9815 15.889C82.8573 15.7265 82.695 15.5987 82.4937 15.5058C82.2921 15.4128 82.0753 15.3665 81.8433 15.3665C81.7655 15.3665 81.6981 15.3721 81.6398 15.3838C81.5818 15.3955 81.5413 15.4128 81.5179 15.4361C81.6728 15.5058 81.7908 15.6027 81.8721 15.7265C81.9535 15.8505 81.994 15.9782 81.994 16.1097C81.994 16.3188 81.9146 16.4855 81.7561 16.6091C81.5973 16.7331 81.4019 16.795 81.1695 16.795C80.945 16.795 80.7531 16.7331 80.5946 16.6091C80.4358 16.4855 80.3564 16.3112 80.3564 16.0866C80.3564 15.8853 80.4183 15.7149 80.5421 15.5755C80.6659 15.4361 80.8344 15.3336 81.0474 15.2676C81.2603 15.202 81.4946 15.1689 81.7503 15.1689Z" fill="white"/>
<path d="M13.5238 25.8262C13.4547 26.6083 13.4073 27.3631 13.3814 28.09C13.3559 28.8175 13.3429 29.3719 13.3429 29.7538C13.3429 30.1724 13.3511 30.5633 13.3688 30.9269C13.3855 31.2908 13.4029 31.6088 13.4203 31.8815H13.1039C12.9184 30.5474 12.6653 29.4934 12.3455 28.7198C12.0251 27.946 11.5951 27.3949 11.0559 27.0656C10.516 26.7366 9.79994 26.5718 8.90635 26.5718H7.81923C7.29634 26.5718 6.90465 26.6164 6.64351 26.7053C6.38176 26.7946 6.2049 26.9812 6.1123 27.2656C6.0197 27.5502 5.9734 27.986 5.9734 28.5729V41.9139C5.9734 42.5901 6.04038 43.0972 6.17557 43.4347C6.31046 43.7731 6.57159 43.9952 6.95959 44.1017C7.34697 44.2085 7.90349 44.2711 8.62824 44.2887V44.7099C8.10524 44.6739 7.42903 44.6518 6.59962 44.6422C5.77021 44.6336 4.9134 44.6287 4.03017 44.6287C3.27274 44.6287 2.54238 44.6336 1.8391 44.6422C1.13615 44.6518 0.522674 44.6739 0 44.7099V44.5924C0.568805 44.5561 0.995566 44.4832 1.27997 44.374C1.56437 44.2651 1.75376 44.0467 1.84877 43.7194C1.94347 43.3921 1.99113 42.9013 1.99113 42.2467V28.7173C1.99113 28.0451 1.94347 27.5493 1.84877 27.231C1.75376 26.913 1.56437 26.6949 1.27997 26.5763C0.995566 26.4581 0.568805 26.3899 0 26.3716V25.8262C0.689384 25.8445 1.41759 25.8581 2.18494 25.8671C2.95198 25.8764 3.71049 25.8854 4.46048 25.8944C5.21047 25.9038 5.90427 25.9081 6.5422 25.9081H8.11952C8.91212 25.9081 9.8133 25.9038 10.8215 25.8944C11.83 25.8854 12.7306 25.8628 13.5238 25.8262ZM9.95566 35.2V35.8637H4.97783V35.2H9.95566ZM10.5433 31.5496C10.4715 32.5709 10.44 33.3501 10.4495 33.8878C10.458 34.4252 10.463 34.9183 10.463 35.3658C10.463 35.814 10.4715 36.3064 10.4895 36.8441C10.5073 37.3815 10.5522 38.161 10.6241 39.1823H10.006C9.93411 38.5734 9.7996 37.9957 9.60275 37.4488C9.40525 36.9025 9.10572 36.4635 8.70251 36.1319C8.29931 35.8005 7.72157 35.6345 6.96896 35.6345V35.0971C7.52407 35.0971 7.98108 34.9806 8.33966 34.7477C8.69792 34.5151 8.98007 34.2149 9.1861 33.8475C9.39213 33.4804 9.55321 33.0949 9.67001 32.6917C9.78615 32.2885 9.87145 31.9082 9.92525 31.5496H10.5433Z" fill="white"/>
<path d="M21.4218 30.6123C22.979 30.6123 24.2001 31.0812 25.0855 32.0191C25.9702 32.9577 26.4129 34.4529 26.4129 36.5277H17.4661L17.4395 35.864H23.3332C23.3685 35.1345 23.3154 34.3337 23.1741 33.599C23.0322 32.8646 22.8066 32.2761 22.4971 31.8334C22.1873 31.3914 21.7845 31.1697 21.2889 31.1697C20.6162 31.1697 20.0322 31.5638 19.537 32.351C19.0411 33.1388 18.7313 34.4264 18.6075 36.214L18.7138 36.3731C18.6782 36.6035 18.6561 36.8511 18.6474 37.1165C18.6383 37.382 18.6341 37.6477 18.6341 37.9131C18.6341 39.1343 18.811 40.1431 19.1653 40.9397C19.5192 41.7359 19.979 42.3199 20.5458 42.6917C21.112 43.0634 21.696 43.2494 22.2978 43.2494C22.7048 43.2494 23.121 43.1875 23.5458 43.0634C23.9704 42.9399 24.3862 42.7095 24.7935 42.3731C25.2006 42.037 25.572 41.5593 25.9083 40.9397L26.4129 41.152C26.2178 41.7716 25.8954 42.3864 25.4439 42.9969C24.9925 43.6078 24.4127 44.1079 23.7049 44.4971C22.9968 44.8863 22.1652 45.0811 21.2095 45.0811C20.0056 45.0811 18.9436 44.8157 18.0235 44.2848C17.1032 43.7537 16.3863 42.9619 15.8733 41.9087C15.3596 40.8558 15.1033 39.5682 15.1033 38.0457C15.1033 36.4353 15.3729 35.0813 15.9131 33.984C16.4527 32.8867 17.2007 32.0502 18.1564 31.475C19.1121 30.9001 20.2007 30.6123 21.4218 30.6123Z" fill="white"/>
<path d="M34.8286 30.6123C36.3857 30.6123 37.6069 31.0812 38.4919 32.0191C39.377 32.9577 39.8193 34.4529 39.8193 36.5277H30.8725L30.8463 35.864H36.74C36.7753 35.1345 36.7221 34.3337 36.5805 33.599C36.4386 32.8646 36.213 32.2761 35.9035 31.8334C35.5937 31.3914 35.1909 31.1697 34.6957 31.1697C34.0229 31.1697 33.4389 31.5638 32.9434 32.351C32.4479 33.1388 32.1377 34.4264 32.0143 36.214L32.1206 36.3731C32.0849 36.6035 32.0629 36.8511 32.0541 37.1165C32.045 37.382 32.0408 37.6477 32.0408 37.9131C32.0408 39.1343 32.2175 40.1431 32.5717 40.9397C32.9256 41.7359 33.3858 42.3199 33.9522 42.6917C34.5184 43.0634 35.1027 43.2494 35.7045 43.2494C36.1116 43.2494 36.5274 43.1875 36.9522 43.0634C37.3771 42.9399 37.7926 42.7095 38.1999 42.3731C38.607 42.037 38.9787 41.5593 39.3151 40.9397L39.8193 41.152C39.6246 41.7716 39.3018 42.3864 38.8504 42.9969C38.3992 43.6078 37.8191 44.1079 37.1117 44.4971C36.4036 44.8863 35.5717 45.0811 34.616 45.0811C33.4123 45.0811 32.3503 44.8157 31.4303 44.2848C30.5096 43.7537 29.793 42.9619 29.2797 41.9087C28.7664 40.8558 28.51 39.5682 28.51 38.0457C28.51 36.4353 28.7796 35.0813 29.3196 33.984C29.8591 32.8867 30.6071 32.0502 31.5628 31.475C32.5185 30.9001 33.6071 30.6123 34.8286 30.6123Z" fill="white"/>
<path d="M46.4598 23.916V42.3176C46.4598 43.0007 46.5855 43.4645 46.8379 43.7085C47.0899 43.9525 47.5171 44.0746 48.1191 44.0746V44.7068C47.8151 44.6901 47.355 44.6688 46.7387 44.6434C46.1218 44.6184 45.4928 44.6057 44.8514 44.6057C44.2262 44.6057 43.5885 44.6184 42.9388 44.6434C42.2885 44.6688 41.8027 44.6901 41.482 44.7068L41.1501 44.1518C41.1501 44.1518 42.5051 44.019 42.7796 43.7535C43.0538 43.4881 43.1912 42.9835 43.1413 42.2404V27.1076C43.1912 26.3113 43.0625 25.7231 42.8062 25.3424C42.5495 24.9619 41.1501 24.7713 41.1501 24.7713V24.2172C41.7338 24.272 42.2997 24.2994 42.847 24.2994C43.5402 24.2994 44.188 24.2676 44.7904 24.2035C45.3924 24.1397 45.9487 24.044 46.4598 23.916Z" fill="white"/>
<path d="M54.7562 30.6978V42.3177C54.7562 43.0007 54.8821 43.4644 55.1344 43.7084C55.3864 43.9523 55.8135 44.0744 56.4154 44.0744V44.7068C56.1115 44.6901 55.6467 44.6687 55.022 44.6434C54.3971 44.6183 53.7637 44.6056 53.1221 44.6056C52.4971 44.6056 51.8638 44.6183 51.2221 44.6434C50.5802 44.6687 50.0987 44.6901 49.7783 44.7068V44.1518C50.3801 44.1518 50.807 44.0189 51.0593 43.7535C51.3116 43.4881 51.4376 42.9835 51.4376 42.2404V33.8775C51.4376 33.081 51.3193 32.4928 51.0837 32.112C50.8478 31.7315 50.4128 31.5413 49.7783 31.5413V30.9803C50.3255 31.0313 50.8558 31.057 51.3692 31.057C52.0019 31.057 52.6049 31.0276 53.1781 30.9674C53.751 30.9076 54.2772 30.8177 54.7562 30.6978ZM52.881 24.2139C53.5182 24.2139 54.0399 24.3911 54.4473 24.7447C54.8543 25.0992 55.0579 25.5679 55.0579 26.1519C55.0579 26.7358 54.8543 27.2051 54.4473 27.559C54.0399 27.9132 53.5182 28.0898 52.881 28.0898C52.2439 28.0898 51.7215 27.9132 51.3144 27.559C50.9074 27.2051 50.7039 26.7358 50.7039 26.1519C50.7039 25.5679 50.9074 25.0992 51.3144 24.7447C51.7215 24.3911 52.2439 24.2139 52.881 24.2139Z" fill="white"/>
<path d="M67.1797 30.5723C67.9364 30.5723 68.5444 30.6716 69.0039 30.8695C69.4631 31.0677 69.8368 31.3201 70.1252 31.6262C70.4494 31.9686 70.6793 32.4097 70.8143 32.9503C70.9495 33.4907 71.0171 34.2204 71.0171 35.1391V42.3178C71.0171 43.0009 71.1429 43.4647 71.3952 43.7087C71.6472 43.9527 72.0744 44.0748 72.6764 44.0748V44.709C72.3604 44.6917 71.8733 44.6695 71.2149 44.6431C70.5564 44.6171 69.9195 44.6039 69.3051 44.6039C68.6554 44.6039 68.0233 44.6171 67.4089 44.6431C66.7942 44.6695 66.3377 44.6917 66.0393 44.709V44.2261C66.6497 44.2261 67.0785 44.0829 67.3267 43.7969C67.5743 43.5109 67.6986 42.9673 67.6986 42.1666V34.2211C67.6986 33.726 67.6526 33.2818 67.5609 32.8874C67.469 32.4933 67.286 32.1817 67.0111 31.9525C66.7358 31.7232 66.3413 31.6087 65.8284 31.6087C65.2234 31.6087 64.687 31.7735 64.2197 32.1035C63.752 32.4335 63.3851 32.8874 63.1196 33.4648C62.8537 34.0422 62.7208 34.6888 62.7208 35.4035V42.1666C62.7208 42.9673 62.8447 43.5109 63.0926 43.7969C63.3402 44.0829 63.7693 44.2261 64.38 44.2261V44.709C64.081 44.6917 63.6335 44.6695 63.0368 44.6431C62.4394 44.6171 61.8337 44.6039 61.2193 44.6039C60.5696 44.6039 59.9111 44.6171 59.244 44.6431C58.5766 44.6695 58.076 44.6917 57.7429 44.709V44.152C58.3447 44.152 58.7716 44.0192 59.0239 43.7538C59.2762 43.4883 59.4022 42.9837 59.4022 42.2406V33.8778C59.4022 33.0812 59.2839 32.493 59.0483 32.1122C58.8124 31.7318 58.3774 31.5415 57.7429 31.5415V30.9806C58.2901 31.0316 58.8204 31.0573 59.3338 31.0573C59.9665 31.0573 60.5695 31.0279 61.1427 30.9677C61.7156 30.9079 62.2418 30.818 62.7208 30.698V33.3554C63.171 32.3289 63.7925 31.6084 64.5855 31.1938C65.3779 30.7794 66.2428 30.5723 67.1797 30.5723Z" fill="white"/>
<path d="M78.7075 49.9998C77.6294 49.9998 76.6524 49.8991 75.7757 49.6984C74.899 49.4971 74.2042 49.2004 73.6931 48.808C73.1817 48.415 72.9258 47.9172 72.9258 47.3145C72.9258 46.7298 73.1817 46.209 73.6931 45.7527C74.2042 45.2958 74.9535 44.9486 75.9402 44.7115L76.1319 45.1496C75.7847 45.3507 75.5198 45.6246 75.3372 45.9718C75.1545 46.3187 75.0632 46.6843 75.0632 47.068C75.0632 47.853 75.4238 48.4608 76.1456 48.89C76.8671 49.3191 77.8308 49.5342 79.0367 49.5342C79.8585 49.5342 80.6165 49.4245 81.3109 49.2054C82.005 48.986 82.5619 48.6478 82.9824 48.1912C83.4025 47.7346 83.6125 47.168 83.6125 46.4923C83.6125 45.926 83.4072 45.451 82.9961 45.0677C82.585 44.684 81.7671 44.492 80.5436 44.492H78.7349C78.0589 44.492 77.4425 44.4194 76.8855 44.2729C76.3279 44.1268 75.8854 43.8893 75.5566 43.5605C75.2278 43.2316 75.0632 42.7751 75.0632 42.1904C75.0632 41.4779 75.3552 40.834 75.9402 40.2587C76.5246 39.683 77.4378 39.1214 78.6804 38.5735L78.9818 38.82C78.5249 39.0575 78.1185 39.313 77.7622 39.5873C77.406 39.8613 77.228 40.2085 77.228 40.6286C77.228 41.2133 77.6294 41.5053 78.4336 41.5053H81.53C82.4796 41.5053 83.3249 41.6244 84.0648 41.8616C84.8047 42.0991 85.3937 42.4737 85.8322 42.9851C86.2704 43.4966 86.4899 44.1726 86.4899 45.0128C86.4899 45.8895 86.2062 46.707 85.6402 47.4653C85.0739 48.223 84.2196 48.8354 83.0784 49.301C81.9364 49.767 80.4793 49.9998 78.7075 49.9998ZM78.9778 39.0543C78.0221 39.0543 77.1591 38.9085 76.3894 38.6165C75.6194 38.3242 75.0131 37.8643 74.5707 37.2359C74.128 36.6079 73.907 35.8067 73.907 34.8332C73.907 33.86 74.128 33.0637 74.5707 32.4438C75.0131 31.8245 75.6194 31.3646 76.3894 31.0632C77.1591 30.7625 78.0221 30.6121 78.9778 30.6121C79.951 30.6121 80.8183 30.7625 81.5795 31.0632C82.3401 31.3646 82.9423 31.8245 83.3846 32.4438C83.827 33.0637 84.0484 33.86 84.0484 34.8332C84.0484 35.8067 83.827 36.6079 83.3846 37.2359C82.9423 37.8643 82.3401 38.3242 81.5795 38.6165C80.8183 38.9085 79.951 39.0543 78.9778 39.0543ZM78.9778 38.5766C79.5087 38.5766 79.929 38.307 80.2388 37.7668C80.5483 37.2272 80.7035 36.2494 80.7035 34.8332C80.7035 33.4173 80.5483 32.4396 80.2388 31.8997C79.929 31.3601 79.5087 31.0898 78.9778 31.0898C78.4467 31.0898 78.026 31.3601 77.7168 31.8997C77.4067 32.4396 77.2521 33.4173 77.2521 34.8332C77.2521 36.2494 77.4067 37.2272 77.7168 37.7668C78.026 38.307 78.4467 38.5766 78.9778 38.5766ZM82.9867 32.8687L82.4821 32.6826C82.7475 32.0283 83.1811 31.4748 83.7829 31.0234C84.3844 30.5722 85.0216 30.3467 85.6947 30.3467C86.2077 30.3467 86.6105 30.4883 86.9025 30.7712C87.1945 31.0545 87.3407 31.4528 87.3407 31.9661C87.3407 32.4969 87.1987 32.8865 86.9158 33.1341C86.6325 33.3823 86.3224 33.5058 85.9867 33.5058C85.6853 33.5058 85.4111 33.404 85.1635 33.2005C84.9156 32.9973 84.774 32.6787 84.7386 32.2448C84.703 31.8112 84.8449 31.2671 85.1635 30.6121L85.4289 30.7181C84.7386 30.9838 84.2253 31.2758 83.8892 31.5944C83.5528 31.9129 83.2521 32.3378 82.9867 32.8687Z" fill="white"/>
</g>
<defs>
<clipPath id="clip0_37_460">
<rect width="87.3405" height="50" fill="white"/>
</clipPath>
</defs>
</svg>
